<?xml version="1.0" standalone="no"?><!DOCTYPE svg PUBLIC "-//W3C//DTD SVG 1.1//EN" "http://www.w3.org/Graphics/SVG/1.1/DTD/svg11.dtd"><svg class="icon" height="512" viewBox="0 0 1024 1024" version="1.1" xmlns="http://www.w3.org/2000/svg"><path d="M521.9328 466.944L319.7952 264.9088a36.5568 36.5568 0 1 0-51.712 51.712l202.1376 202.24L268.0832 720.896a36.5568 36.5568 0 1 0 51.712 51.712l202.1376-202.1376 202.24 202.1376a36.5568 36.5568 0 1 0 51.712-51.712L573.6448 518.7584 775.8848 316.416a36.5568 36.5568 0 1 0-51.712-51.712L521.9328 466.944zM512 1024A512 512 0 1 1 512 0a512 512 0 0 1 0 1024z" fill="#8493A8" /></svg>